<svg viewBox="-113.027783669141 -48 246.3363732767762 100" xmlns="http://www.w3.org/2000/svg" xmlns:xlink="http://www.w3.org/1999/xlink" version="1.1" class="jsx-2263963463 artboard-inner" style="width: 480px; height: 194.856px; max-height: 100%;"><g transform="translate(-3.3934252386002113 29.306468716861062) scale(1.4728408153646748)" fill="#FFFFFF"><g id="line1"><path d="M29.592-37.800L29.592-33.840C26.424-36.432 22.608-38.592 17.136-38.592C8.280-38.592 2.304-31.968 2.304-18.864C2.304-5.904 8.280 0.792 17.136 0.792C22.608 0.792 26.424-1.296 29.592-3.888L29.592 0.072C29.592 4.392 27.720 6.264 21.888 6.264C18.072 6.264 10.944 4.680 6.264 3.240C5.472 6.192 4.752 9.216 3.960 12.312C10.440 14.184 18.432 15.408 24.408 15.408C35.928 15.408 41.400 10.296 41.400-0.504L41.400-37.800ZM20.880-8.712C16.488-8.712 14.256-12.240 14.256-18.936C14.256-25.560 16.488-29.088 20.880-29.088C23.832-29.088 26.856-27.720 29.592-24.624L29.592-13.104C26.856-10.080 23.832-8.712 20.880-8.712Z"></path><path d="M58.442 0L58.442-37.800L46.562-37.800L46.562 0ZM46.346-42.624L58.730-42.624L58.730-52.272L46.346-52.272Z"></path><path d="M75.557 0L75.557-52.488L63.749-52.488L63.749 0Z"></path><path d="M92.815 0L92.815-52.488L81.007-52.488L81.007 0Z"></path></g></g><g transform="translate(-113.027783669141 -42.152176033934246) scale(0.8265132555673381)" id="logomark"><g fill="#FFFFFF"><path d="M85.293 52.445c0-5.717 3.197-10.954 8.505-15.021a17.637 17.637 0 0 0-8.505-2.168c-6.982 0-13.009 4.025-15.811 9.843-4.624-6.324-14.526-11.306-23.713-13.423.932-3.056 2.678-5.605 4.905-7.228-1.664-1.206-3.594-1.896-5.652-1.896-4.505 0-8.395 3.306-10.219 8.092-13.164.929-27.985 10.334-27.985 21.801 0 3.731 1.571 7.245 4.143 10.319.038-.002.075-.007.113-.01 1.878 2.216 4.276 4.198 6.98 5.868-.029.027-.056.057-.085.084 5.626 3.49 12.586 5.616 18.937 5.616 4.243 0 9.259-.949 14.155-2.62 2.063 3.485 5.366 5.744 9.09 5.744 2.067 0 4.005-.696 5.672-1.912-2.465-1.786-4.342-4.708-5.185-8.195 3.647-2.156 6.773-4.718 8.844-7.548 2.802 5.818 8.828 9.843 15.811 9.843 3.087 0 5.987-.787 8.505-2.169-5.308-4.065-8.505-9.302-8.505-15.02zm-64.466-.127a3.516 3.516 0 1 1 0-7.032 3.516 3.516 0 0 1 0 7.032zm20.191.956a4.515 4.515 0 0 1-3.538 4.406 4.517 4.517 0 1 1-2.295 8.729 4.517 4.517 0 0 0 0-8.641c.107-.033.217-.062.328-.086a5.09 5.09 0 0 1-.328-.086 4.517 4.517 0 0 0 .404-8.495 5.073 5.073 0 0 1-.404-.101l.066-.023c-.023-.008-.044-.017-.066-.023.131-.04.266-.072.402-.1a4.518 4.518 0 0 0-.403-8.496 4.516 4.516 0 0 1 2.703 8.619 4.515 4.515 0 0 1 3.131 4.297z"></path></g></g></svg>