<svg viewBox="-66.65429480381759 0 133.30858960763518 100" xmlns="http://www.w3.org/2000/svg" xmlns:xlink="http://www.w3.org/1999/xlink" version="1.1" style="width: 399.926px; height: 300px; max-height: 100%;"><g transform="translate(-70.04772004241781 77.30646871686108) scale(1.472840815364675)" fill="#232323"><g id="line1"><path d="M29.592-37.800L29.592-33.840C26.424-36.432 22.608-38.592 17.136-38.592C8.280-38.592 2.304-31.968 2.304-18.864C2.304-5.904 8.280 0.792 17.136 0.792C22.608 0.792 26.424-1.296 29.592-3.888L29.592 0.072C29.592 4.392 27.720 6.264 21.888 6.264C18.072 6.264 10.944 4.680 6.264 3.240C5.472 6.192 4.752 9.216 3.960 12.312C10.440 14.184 18.432 15.408 24.408 15.408C35.928 15.408 41.400 10.296 41.400-0.504L41.400-37.800ZM20.880-8.712C16.488-8.712 14.256-12.240 14.256-18.936C14.256-25.560 16.488-29.088 20.880-29.088C23.832-29.088 26.856-27.720 29.592-24.624L29.592-13.104C26.856-10.080 23.832-8.712 20.880-8.712Z"></path><path d="M58.442 0L58.442-37.800L46.562-37.800L46.562 0ZM46.346-42.624L58.730-42.624L58.730-52.272L46.346-52.272Z"></path><path d="M75.557 0L75.557-52.488L63.749-52.488L63.749 0Z"></path><path d="M92.815 0L92.815-52.488L81.007-52.488L81.007 0Z"></path></g></g></svg>